<?xml version="1.0" encoding="UTF-8"?>
<svg xmlns="http://www.w3.org/2000/svg" xmlns:xlink="http://www.w3.org/1999/xlink" width="11pt" height="11pt" viewBox="0 0 11 11" version="1.1">
<g id="surface1">
<path style="fill:none;stroke-width:0.035;stroke-linecap:round;stroke-linejoin:round;stroke:rgb(50.19989%,50.19989%,50.19989%);stroke-opacity:1;stroke-miterlimit:10;" d="M 0.0195313 0.0195313 L 0.0195313 10.980469 L 10.980469 10.980469 L 10.980469 0.0195313 L 0.0195313 0.0195313 " transform="matrix(1,0,0,-1,0,11)"/>
<path style="fill-rule:nonzero;fill:rgb(100%,100%,100%);fill-opacity:1;stroke-width:0.035;stroke-linecap:round;stroke-linejoin:round;stroke:rgb(100%,100%,100%);stroke-opacity:1;stroke-miterlimit:10;" d="M 0.0195313 0.0195313 L 0.0195313 10.980469 L 10.980469 10.980469 L 10.980469 0.0195313 Z M 0.0195313 0.0195313 " transform="matrix(1,0,0,-1,0,11)"/>
<path style="fill:none;stroke-width:0.035;stroke-linecap:round;stroke-linejoin:round;stroke:rgb(50.19989%,50.19989%,50.19989%);stroke-opacity:1;stroke-miterlimit:10;" d="M 0.0195313 0.0195313 L 0.0195313 10.980469 L 10.980469 10.980469 L 10.980469 0.0195313 L 0.0195313 0.0195313 " transform="matrix(1,0,0,-1,0,11)"/>
<path style="fill:none;stroke-width:0.035;stroke-linecap:round;stroke-linejoin:round;stroke:rgb(0%,0%,0%);stroke-opacity:1;stroke-miterlimit:10;" d="M 0.0195313 0.0195313 L 10.980469 0.0195313 " transform="matrix(1,0,0,-1,0,11)"/>
<path style="fill:none;stroke-width:0.035;stroke-linecap:round;stroke-linejoin:round;stroke:rgb(0%,0%,0%);stroke-opacity:1;stroke-miterlimit:10;" d="M 10.980469 0.0195313 L 10.980469 10.980469 " transform="matrix(1,0,0,-1,0,11)"/>
<path style="fill:none;stroke-width:0.035;stroke-linecap:round;stroke-linejoin:round;stroke:rgb(0%,0%,0%);stroke-opacity:1;stroke-miterlimit:10;" d="M 0.0195313 0.0195313 L 0.0195313 10.980469 " transform="matrix(1,0,0,-1,0,11)"/>
<path style="fill:none;stroke-width:0.035;stroke-linecap:round;stroke-linejoin:round;stroke:rgb(0%,0%,0%);stroke-opacity:1;stroke-miterlimit:10;" d="M 0.0195313 10.980469 L 10.980469 10.980469 " transform="matrix(1,0,0,-1,0,11)"/>
<path style="fill:none;stroke-width:0.035;stroke-linecap:round;stroke-linejoin:round;stroke:rgb(0%,0%,0%);stroke-opacity:1;stroke-miterlimit:10;" d="M 0.609375 5.5 L 0.730469 6.589844 L 1.089844 7.621094 L 1.671875 8.550781 L 2.449219 9.328125 L 3.378906 9.910156 L 4.410156 10.269531 L 5.5 10.390625 L 6.589844 10.269531 L 7.621094 9.910156 L 8.550781 9.328125 L 9.328125 8.550781 L 9.910156 7.621094 L 10.269531 6.589844 L 10.390625 5.5 L 10.269531 4.410156 L 9.910156 3.378906 L 9.328125 2.449219 L 8.550781 1.671875 L 7.621094 1.089844 L 6.589844 0.730469 L 5.5 0.609375 L 4.410156 0.730469 L 3.378906 1.089844 L 2.449219 1.671875 L 1.671875 2.449219 L 1.089844 3.378906 L 0.730469 4.410156 L 0.609375 5.5 " transform="matrix(1,0,0,-1,0,11)"/>
<path style="fill-rule:evenodd;fill:rgb(0%,0%,0%);fill-opacity:1;stroke-width:0.035;stroke-linecap:round;stroke-linejoin:round;stroke:rgb(0%,0%,0%);stroke-opacity:1;stroke-miterlimit:10;" d="M 3.929688 3.671875 L 3.929688 5.210938 L 2.53125 7.320313 L 3.109375 7.320313 L 3.828125 6.21875 L 3.929688 6.058594 L 4.121094 5.75 L 4.199219 5.601563 L 4.289063 5.738281 L 4.480469 6.058594 L 4.601563 6.238281 L 5.308594 7.320313 L 5.871094 7.320313 L 4.410156 5.210938 L 4.410156 3.671875 Z M 3.929688 3.671875 " transform="matrix(1,0,0,-1,0,11)"/>
<path style="fill-rule:evenodd;fill:rgb(0%,0%,0%);fill-opacity:1;stroke-width:0.035;stroke-linecap:round;stroke-linejoin:round;stroke:rgb(0%,0%,0%);stroke-opacity:1;stroke-miterlimit:10;" d="M 8.480469 4.101563 L 8.480469 3.671875 L 6.058594 3.671875 L 6.058594 3.75 L 6.089844 3.898438 L 6.121094 3.980469 L 6.160156 4.101563 L 6.308594 4.339844 L 6.410156 4.460938 L 6.511719 4.578125 L 6.808594 4.859375 L 7 5.019531 L 7.289063 5.261719 L 7.699219 5.648438 L 7.800781 5.789063 L 7.910156 5.929688 L 8.011719 6.199219 L 8.011719 6.460938 L 7.921875 6.691406 L 7.820313 6.78125 L 7.730469 6.871094 L 7.480469 6.960938 L 7.160156 6.960938 L 6.898438 6.859375 L 6.710938 6.671875 L 6.609375 6.398438 L 6.609375 6.230469 L 6.148438 6.28125 L 6.171875 6.539063 L 6.351563 6.929688 L 6.5 7.058594 L 6.660156 7.199219 L 7.070313 7.328125 L 7.601563 7.328125 L 8.011719 7.191406 L 8.171875 7.039063 L 8.320313 6.898438 L 8.46875 6.539063 L 8.46875 6.210938 L 8.429688 5.988281 L 8.378906 5.890625 L 8.339844 5.78125 L 8.191406 5.558594 L 8.078125 5.441406 L 7.980469 5.328125 L 7.628906 5 L 7.390625 4.800781 L 7.191406 4.628906 L 6.929688 4.398438 L 6.878906 4.339844 L 6.820313 4.28125 L 6.71875 4.160156 L 6.691406 4.101563 Z M 8.480469 4.101563 " transform="matrix(1,0,0,-1,0,11)"/>
</g>
</svg>
