<?xml version="1.0" encoding="UTF-8"?>
<svg xmlns="http://www.w3.org/2000/svg" xmlns:xlink="http://www.w3.org/1999/xlink" width="11pt" height="11pt" viewBox="0 0 11 11" version="1.1">
<g id="surface1">
<path style="fill:none;stroke-width:0.035;stroke-linecap:round;stroke-linejoin:round;stroke:rgb(50.19989%,50.19989%,50.19989%);stroke-opacity:1;stroke-miterlimit:10;" d="M 0.0195313 0.0195313 L 0.0195313 10.980469 L 10.980469 10.980469 L 10.980469 0.0195313 L 0.0195313 0.0195313 " transform="matrix(1,0,0,-1,0,11)"/>
<path style="fill-rule:nonzero;fill:rgb(100%,100%,100%);fill-opacity:1;stroke-width:0.035;stroke-linecap:round;stroke-linejoin:round;stroke:rgb(100%,100%,100%);stroke-opacity:1;stroke-miterlimit:10;" d="M 0.0195313 0.0195313 L 0.0195313 10.980469 L 10.980469 10.980469 L 10.980469 0.0195313 Z M 0.0195313 0.0195313 " transform="matrix(1,0,0,-1,0,11)"/>
<path style="fill:none;stroke-width:0.035;stroke-linecap:round;stroke-linejoin:round;stroke:rgb(50.19989%,50.19989%,50.19989%);stroke-opacity:1;stroke-miterlimit:10;" d="M 0.0195313 0.0195313 L 0.0195313 10.980469 L 10.980469 10.980469 L 10.980469 0.0195313 L 0.0195313 0.0195313 " transform="matrix(1,0,0,-1,0,11)"/>
<path style="fill:none;stroke-width:0.035;stroke-linecap:round;stroke-linejoin:round;stroke:rgb(0%,0%,0%);stroke-opacity:1;stroke-miterlimit:10;" d="M 0.0195313 0.0195313 L 10.980469 0.0195313 " transform="matrix(1,0,0,-1,0,11)"/>
<path style="fill:none;stroke-width:0.035;stroke-linecap:round;stroke-linejoin:round;stroke:rgb(0%,0%,0%);stroke-opacity:1;stroke-miterlimit:10;" d="M 10.980469 0.0195313 L 10.980469 10.980469 " transform="matrix(1,0,0,-1,0,11)"/>
<path style="fill:none;stroke-width:0.035;stroke-linecap:round;stroke-linejoin:round;stroke:rgb(0%,0%,0%);stroke-opacity:1;stroke-miterlimit:10;" d="M 0.0195313 0.0195313 L 0.0195313 10.980469 " transform="matrix(1,0,0,-1,0,11)"/>
<path style="fill:none;stroke-width:0.035;stroke-linecap:round;stroke-linejoin:round;stroke:rgb(0%,0%,0%);stroke-opacity:1;stroke-miterlimit:10;" d="M 0.0195313 10.980469 L 10.980469 10.980469 " transform="matrix(1,0,0,-1,0,11)"/>
<path style="fill:none;stroke-width:0.035;stroke-linecap:round;stroke-linejoin:round;stroke:rgb(0%,0%,0%);stroke-opacity:1;stroke-miterlimit:10;" d="M 0.609375 5.5 L 0.730469 6.589844 L 1.089844 7.621094 L 1.671875 8.550781 L 2.449219 9.328125 L 3.378906 9.910156 L 4.410156 10.269531 L 5.5 10.390625 L 6.589844 10.269531 L 7.621094 9.910156 L 8.550781 9.328125 L 9.328125 8.550781 L 9.910156 7.621094 L 10.269531 6.589844 L 10.390625 5.5 L 10.269531 4.410156 L 9.910156 3.378906 L 9.328125 2.449219 L 8.550781 1.671875 L 7.621094 1.089844 L 6.589844 0.730469 L 5.5 0.609375 L 4.410156 0.730469 L 3.378906 1.089844 L 2.449219 1.671875 L 1.671875 2.449219 L 1.089844 3.378906 L 0.730469 4.410156 L 0.609375 5.5 " transform="matrix(1,0,0,-1,0,11)"/>
<path style="fill-rule:evenodd;fill:rgb(0%,0%,0%);fill-opacity:1;stroke-width:0.035;stroke-linecap:round;stroke-linejoin:round;stroke:rgb(0%,0%,0%);stroke-opacity:1;stroke-miterlimit:10;" d="M 3.910156 3.699219 L 3.910156 5.238281 L 2.511719 7.351563 L 3.089844 7.351563 L 3.808594 6.25 L 3.910156 6.089844 L 4.101563 5.789063 L 4.179688 5.628906 L 4.269531 5.769531 L 4.460938 6.101563 L 4.578125 6.28125 L 5.289063 7.351563 L 5.851563 7.351563 L 4.390625 5.238281 L 4.390625 3.699219 Z M 3.910156 3.699219 " transform="matrix(1,0,0,-1,0,11)"/>
<path style="fill-rule:evenodd;fill:rgb(0%,0%,0%);fill-opacity:1;stroke-width:0.035;stroke-linecap:round;stroke-linejoin:round;stroke:rgb(0%,0%,0%);stroke-opacity:1;stroke-miterlimit:10;" d="M 6.109375 4.671875 L 6.558594 4.71875 L 6.589844 4.53125 L 6.730469 4.261719 L 6.820313 4.179688 L 6.910156 4.089844 L 7.140625 4.011719 L 7.429688 4.011719 L 7.699219 4.121094 L 7.800781 4.230469 L 7.910156 4.339844 L 8.019531 4.609375 L 8.019531 4.921875 L 7.921875 5.179688 L 7.820313 5.28125 L 7.71875 5.378906 L 7.460938 5.480469 L 7.238281 5.480469 L 7.089844 5.449219 L 6.988281 5.429688 L 7.039063 5.820313 L 7.261719 5.820313 L 7.511719 5.890625 L 7.628906 5.96875 L 7.738281 6.039063 L 7.859375 6.269531 L 7.859375 6.550781 L 7.769531 6.75 L 7.691406 6.828125 L 7.609375 6.921875 L 7.390625 7 L 7.128906 7 L 6.910156 6.910156 L 6.820313 6.828125 L 6.738281 6.75 L 6.621094 6.5 L 6.601563 6.339844 L 6.148438 6.421875 L 6.191406 6.640625 L 6.378906 6.988281 L 6.519531 7.121094 L 6.671875 7.238281 L 7.03125 7.359375 L 7.398438 7.359375 L 7.671875 7.300781 L 7.800781 7.238281 L 7.921875 7.171875 L 8.121094 7 L 8.179688 6.890625 L 8.25 6.78125 L 8.320313 6.539063 L 8.320313 6.300781 L 8.25 6.078125 L 8.191406 5.988281 L 8.128906 5.890625 L 7.941406 5.738281 L 7.808594 5.679688 L 7.980469 5.640625 L 8.230469 5.488281 L 8.320313 5.371094 L 8.410156 5.25 L 8.5 4.960938 L 8.5 4.539063 L 8.320313 4.128906 L 8.148438 3.96875 L 7.96875 3.800781 L 7.53125 3.640625 L 7.03125 3.640625 L 6.628906 3.78125 L 6.46875 3.921875 L 6.308594 4.070313 L 6.128906 4.441406 Z M 6.109375 4.671875 " transform="matrix(1,0,0,-1,0,11)"/>
</g>
</svg>
