<?xml version="1.0" encoding="UTF-8"?>
<svg xmlns="http://www.w3.org/2000/svg" xmlns:xlink="http://www.w3.org/1999/xlink" width="11pt" height="11pt" viewBox="0 0 11 11" version="1.1">
<g id="surface1">
<path style="fill:none;stroke-width:0.035;stroke-linecap:round;stroke-linejoin:round;stroke:rgb(50.19989%,50.19989%,50.19989%);stroke-opacity:1;stroke-miterlimit:10;" d="M 0.0195313 0.0195313 L 0.0195313 10.980469 L 10.980469 10.980469 L 10.980469 0.0195313 L 0.0195313 0.0195313 " transform="matrix(1,0,0,-1,0,11)"/>
<path style="fill-rule:nonzero;fill:rgb(100%,100%,100%);fill-opacity:1;stroke-width:0.035;stroke-linecap:round;stroke-linejoin:round;stroke:rgb(100%,100%,100%);stroke-opacity:1;stroke-miterlimit:10;" d="M 0.0195313 0.0195313 L 0.0195313 10.980469 L 10.980469 10.980469 L 10.980469 0.0195313 Z M 0.0195313 0.0195313 " transform="matrix(1,0,0,-1,0,11)"/>
<path style="fill:none;stroke-width:0.035;stroke-linecap:round;stroke-linejoin:round;stroke:rgb(50.19989%,50.19989%,50.19989%);stroke-opacity:1;stroke-miterlimit:10;" d="M 0.0195313 0.0195313 L 0.0195313 10.980469 L 10.980469 10.980469 L 10.980469 0.0195313 L 0.0195313 0.0195313 " transform="matrix(1,0,0,-1,0,11)"/>
<path style="fill:none;stroke-width:0.035;stroke-linecap:round;stroke-linejoin:round;stroke:rgb(0%,0%,0%);stroke-opacity:1;stroke-miterlimit:10;" d="M 0.0195313 0.0195313 L 10.980469 0.0195313 " transform="matrix(1,0,0,-1,0,11)"/>
<path style="fill:none;stroke-width:0.035;stroke-linecap:round;stroke-linejoin:round;stroke:rgb(0%,0%,0%);stroke-opacity:1;stroke-miterlimit:10;" d="M 10.980469 0.0195313 L 10.980469 10.980469 " transform="matrix(1,0,0,-1,0,11)"/>
<path style="fill:none;stroke-width:0.035;stroke-linecap:round;stroke-linejoin:round;stroke:rgb(0%,0%,0%);stroke-opacity:1;stroke-miterlimit:10;" d="M 0.0195313 0.0195313 L 0.0195313 10.980469 " transform="matrix(1,0,0,-1,0,11)"/>
<path style="fill:none;stroke-width:0.035;stroke-linecap:round;stroke-linejoin:round;stroke:rgb(0%,0%,0%);stroke-opacity:1;stroke-miterlimit:10;" d="M 0.0195313 10.980469 L 10.980469 10.980469 " transform="matrix(1,0,0,-1,0,11)"/>
<path style="fill:none;stroke-width:0.035;stroke-linecap:round;stroke-linejoin:round;stroke:rgb(0%,0%,0%);stroke-opacity:1;stroke-miterlimit:10;" d="M 0.609375 5.5 L 0.730469 6.589844 L 1.089844 7.621094 L 1.671875 8.550781 L 2.449219 9.328125 L 3.378906 9.910156 L 4.410156 10.269531 L 5.5 10.390625 L 6.589844 10.269531 L 7.621094 9.910156 L 8.550781 9.328125 L 9.328125 8.550781 L 9.910156 7.621094 L 10.269531 6.589844 L 10.390625 5.5 L 10.269531 4.410156 L 9.910156 3.378906 L 9.328125 2.449219 L 8.550781 1.671875 L 7.621094 1.089844 L 6.589844 0.730469 L 5.5 0.609375 L 4.410156 0.730469 L 3.378906 1.089844 L 2.449219 1.671875 L 1.671875 2.449219 L 1.089844 3.378906 L 0.730469 4.410156 L 0.609375 5.5 " transform="matrix(1,0,0,-1,0,11)"/>
<path style="fill-rule:evenodd;fill:rgb(0%,0%,0%);fill-opacity:1;stroke-width:0.035;stroke-linecap:round;stroke-linejoin:round;stroke:rgb(0%,0%,0%);stroke-opacity:1;stroke-miterlimit:10;" d="M 3.921875 3.671875 L 3.921875 5.21875 L 2.511719 7.328125 L 3.101563 7.328125 L 3.820313 6.21875 L 3.921875 6.070313 L 4.109375 5.761719 L 4.191406 5.609375 L 4.269531 5.75 L 4.46875 6.070313 L 4.589844 6.25 L 5.300781 7.328125 L 5.859375 7.328125 L 4.398438 5.21875 L 4.398438 3.671875 Z M 3.921875 3.671875 " transform="matrix(1,0,0,-1,0,11)"/>
<path style="fill-rule:evenodd;fill:rgb(0%,0%,0%);fill-opacity:1;stroke-width:0.035;stroke-linecap:round;stroke-linejoin:round;stroke:rgb(0%,0%,0%);stroke-opacity:1;stroke-miterlimit:10;" d="M 7.550781 3.671875 L 7.550781 4.550781 L 5.960938 4.550781 L 5.960938 4.960938 L 7.628906 7.320313 L 8 7.320313 L 8 4.960938 L 8.488281 4.960938 L 8.488281 4.550781 L 8 4.550781 L 8 3.671875 Z M 7.550781 4.960938 L 7.550781 6.601563 L 6.398438 4.960938 Z M 7.550781 4.960938 " transform="matrix(1,0,0,-1,0,11)"/>
</g>
</svg>
