<?xml version="1.0" encoding="UTF-8"?>
<svg xmlns="http://www.w3.org/2000/svg" xmlns:xlink="http://www.w3.org/1999/xlink" width="11pt" height="11pt" viewBox="0 0 11 11" version="1.1">
<g id="surface1">
<path style="fill:none;stroke-width:0.035;stroke-linecap:round;stroke-linejoin:round;stroke:rgb(50.19989%,50.19989%,50.19989%);stroke-opacity:1;stroke-miterlimit:10;" d="M 0.0195313 0.0195313 L 0.0195313 10.980469 L 10.980469 10.980469 L 10.980469 0.0195313 L 0.0195313 0.0195313 " transform="matrix(1,0,0,-1,0,11)"/>
<path style="fill-rule:nonzero;fill:rgb(100%,100%,100%);fill-opacity:1;stroke-width:0.035;stroke-linecap:round;stroke-linejoin:round;stroke:rgb(100%,100%,100%);stroke-opacity:1;stroke-miterlimit:10;" d="M 0.0195313 0.0195313 L 0.0195313 10.980469 L 10.980469 10.980469 L 10.980469 0.0195313 Z M 0.0195313 0.0195313 " transform="matrix(1,0,0,-1,0,11)"/>
<path style="fill:none;stroke-width:0.035;stroke-linecap:round;stroke-linejoin:round;stroke:rgb(50.19989%,50.19989%,50.19989%);stroke-opacity:1;stroke-miterlimit:10;" d="M 0.0195313 0.0195313 L 0.0195313 10.980469 L 10.980469 10.980469 L 10.980469 0.0195313 L 0.0195313 0.0195313 " transform="matrix(1,0,0,-1,0,11)"/>
<path style="fill:none;stroke-width:0.035;stroke-linecap:round;stroke-linejoin:round;stroke:rgb(0%,0%,0%);stroke-opacity:1;stroke-miterlimit:10;" d="M 0.0195313 0.0195313 L 10.980469 0.0195313 " transform="matrix(1,0,0,-1,0,11)"/>
<path style="fill:none;stroke-width:0.035;stroke-linecap:round;stroke-linejoin:round;stroke:rgb(0%,0%,0%);stroke-opacity:1;stroke-miterlimit:10;" d="M 10.980469 0.0195313 L 10.980469 10.980469 " transform="matrix(1,0,0,-1,0,11)"/>
<path style="fill:none;stroke-width:0.035;stroke-linecap:round;stroke-linejoin:round;stroke:rgb(0%,0%,0%);stroke-opacity:1;stroke-miterlimit:10;" d="M 0.0195313 0.0195313 L 0.0195313 10.980469 " transform="matrix(1,0,0,-1,0,11)"/>
<path style="fill:none;stroke-width:0.035;stroke-linecap:round;stroke-linejoin:round;stroke:rgb(0%,0%,0%);stroke-opacity:1;stroke-miterlimit:10;" d="M 0.0195313 10.980469 L 10.980469 10.980469 " transform="matrix(1,0,0,-1,0,11)"/>
<path style="fill:none;stroke-width:0.035;stroke-linecap:round;stroke-linejoin:round;stroke:rgb(0%,0%,0%);stroke-opacity:1;stroke-miterlimit:10;" d="M 0.609375 5.5 L 0.730469 6.589844 L 1.089844 7.621094 L 1.671875 8.550781 L 2.449219 9.328125 L 3.378906 9.910156 L 4.410156 10.269531 L 5.5 10.390625 L 6.589844 10.269531 L 7.621094 9.910156 L 8.550781 9.328125 L 9.328125 8.550781 L 9.910156 7.621094 L 10.269531 6.589844 L 10.390625 5.5 L 10.269531 4.410156 L 9.910156 3.378906 L 9.328125 2.449219 L 8.550781 1.671875 L 7.621094 1.089844 L 6.589844 0.730469 L 5.5 0.609375 L 4.410156 0.730469 L 3.378906 1.089844 L 2.449219 1.671875 L 1.671875 2.449219 L 1.089844 3.378906 L 0.730469 4.410156 L 0.609375 5.5 " transform="matrix(1,0,0,-1,0,11)"/>
<path style="fill-rule:evenodd;fill:rgb(0%,0%,0%);fill-opacity:1;stroke-width:0.035;stroke-linecap:round;stroke-linejoin:round;stroke:rgb(0%,0%,0%);stroke-opacity:1;stroke-miterlimit:10;" d="M 3.898438 3.699219 L 3.898438 5.25 L 2.488281 7.359375 L 3.078125 7.359375 L 3.800781 6.25 L 3.898438 6.101563 L 4.089844 5.789063 L 4.171875 5.640625 L 4.25 5.78125 L 4.449219 6.101563 L 4.570313 6.28125 L 5.28125 7.359375 L 5.839844 7.359375 L 4.378906 5.25 L 4.378906 3.699219 Z M 3.898438 3.699219 " transform="matrix(1,0,0,-1,0,11)"/>
<path style="fill-rule:evenodd;fill:rgb(0%,0%,0%);fill-opacity:1;stroke-width:0.035;stroke-linecap:round;stroke-linejoin:round;stroke:rgb(0%,0%,0%);stroke-opacity:1;stroke-miterlimit:10;" d="M 6.089844 4.660156 L 6.558594 4.699219 L 6.589844 4.53125 L 6.710938 4.269531 L 6.800781 4.179688 L 6.898438 4.101563 L 7.128906 4.011719 L 7.429688 4.011719 L 7.699219 4.128906 L 7.808594 4.261719 L 7.921875 4.378906 L 8.03125 4.699219 L 8.03125 5.101563 L 7.929688 5.398438 L 7.820313 5.511719 L 7.710938 5.621094 L 7.429688 5.730469 L 7.148438 5.730469 L 6.949219 5.679688 L 6.859375 5.628906 L 6.78125 5.578125 L 6.640625 5.460938 L 6.589844 5.378906 L 6.171875 5.429688 L 6.519531 7.308594 L 8.339844 7.308594 L 8.339844 6.878906 L 6.878906 6.878906 L 6.691406 5.898438 L 6.851563 6.011719 L 7.191406 6.128906 L 7.609375 6.128906 L 8.019531 5.960938 L 8.179688 5.800781 L 8.339844 5.628906 L 8.511719 5.199219 L 8.511719 4.699219 L 8.359375 4.269531 L 8.21875 4.089844 L 8.039063 3.859375 L 7.570313 3.640625 L 7.011719 3.640625 L 6.609375 3.78125 L 6.449219 3.921875 L 6.289063 4.058594 L 6.109375 4.429688 Z M 6.089844 4.660156 " transform="matrix(1,0,0,-1,0,11)"/>
</g>
</svg>
