<?xml version="1.0" encoding="UTF-8"?>
<svg xmlns="http://www.w3.org/2000/svg" xmlns:xlink="http://www.w3.org/1999/xlink" width="11pt" height="11pt" viewBox="0 0 11 11" version="1.1">
<g id="surface1">
<path style="fill:none;stroke-width:0.035;stroke-linecap:round;stroke-linejoin:round;stroke:rgb(50.19989%,50.19989%,50.19989%);stroke-opacity:1;stroke-miterlimit:10;" d="M 0.0195313 0.0195313 L 0.0195313 10.980469 L 10.980469 10.980469 L 10.980469 0.0195313 L 0.0195313 0.0195313 " transform="matrix(1,0,0,-1,0,11)"/>
<path style="fill-rule:nonzero;fill:rgb(100%,100%,100%);fill-opacity:1;stroke-width:0.035;stroke-linecap:round;stroke-linejoin:round;stroke:rgb(100%,100%,100%);stroke-opacity:1;stroke-miterlimit:10;" d="M 0.0195313 0.0195313 L 0.0195313 10.980469 L 10.980469 10.980469 L 10.980469 0.0195313 Z M 0.0195313 0.0195313 " transform="matrix(1,0,0,-1,0,11)"/>
<path style="fill:none;stroke-width:0.035;stroke-linecap:round;stroke-linejoin:round;stroke:rgb(50.19989%,50.19989%,50.19989%);stroke-opacity:1;stroke-miterlimit:10;" d="M 0.0195313 0.0195313 L 0.0195313 10.980469 L 10.980469 10.980469 L 10.980469 0.0195313 L 0.0195313 0.0195313 " transform="matrix(1,0,0,-1,0,11)"/>
<path style="fill:none;stroke-width:0.035;stroke-linecap:round;stroke-linejoin:round;stroke:rgb(0%,0%,0%);stroke-opacity:1;stroke-miterlimit:10;" d="M 0.0195313 0.0195313 L 10.980469 0.0195313 " transform="matrix(1,0,0,-1,0,11)"/>
<path style="fill:none;stroke-width:0.035;stroke-linecap:round;stroke-linejoin:round;stroke:rgb(0%,0%,0%);stroke-opacity:1;stroke-miterlimit:10;" d="M 10.980469 0.0195313 L 10.980469 10.980469 " transform="matrix(1,0,0,-1,0,11)"/>
<path style="fill:none;stroke-width:0.035;stroke-linecap:round;stroke-linejoin:round;stroke:rgb(0%,0%,0%);stroke-opacity:1;stroke-miterlimit:10;" d="M 0.0195313 0.0195313 L 0.0195313 10.980469 " transform="matrix(1,0,0,-1,0,11)"/>
<path style="fill:none;stroke-width:0.035;stroke-linecap:round;stroke-linejoin:round;stroke:rgb(0%,0%,0%);stroke-opacity:1;stroke-miterlimit:10;" d="M 0.0195313 10.980469 L 10.980469 10.980469 " transform="matrix(1,0,0,-1,0,11)"/>
<path style="fill:none;stroke-width:0.035;stroke-linecap:round;stroke-linejoin:round;stroke:rgb(0%,0%,0%);stroke-opacity:1;stroke-miterlimit:10;" d="M 0.609375 5.5 L 0.730469 6.589844 L 1.089844 7.621094 L 1.671875 8.550781 L 2.449219 9.328125 L 3.378906 9.910156 L 4.410156 10.269531 L 5.5 10.390625 L 6.589844 10.269531 L 7.621094 9.910156 L 8.550781 9.328125 L 9.328125 8.550781 L 9.910156 7.621094 L 10.269531 6.589844 L 10.390625 5.5 L 10.269531 4.410156 L 9.910156 3.378906 L 9.328125 2.449219 L 8.550781 1.671875 L 7.621094 1.089844 L 6.589844 0.730469 L 5.5 0.609375 L 4.410156 0.730469 L 3.378906 1.089844 L 2.449219 1.671875 L 1.671875 2.449219 L 1.089844 3.378906 L 0.730469 4.410156 L 0.609375 5.5 " transform="matrix(1,0,0,-1,0,11)"/>
<path style="fill-rule:evenodd;fill:rgb(0%,0%,0%);fill-opacity:1;stroke-width:0.035;stroke-linecap:round;stroke-linejoin:round;stroke:rgb(0%,0%,0%);stroke-opacity:1;stroke-miterlimit:10;" d="M 3.910156 3.699219 L 3.910156 5.238281 L 2.511719 7.351563 L 3.089844 7.351563 L 3.808594 6.25 L 3.910156 6.089844 L 4.101563 5.789063 L 4.179688 5.628906 L 4.269531 5.769531 L 4.460938 6.101563 L 4.578125 6.28125 L 5.289063 7.351563 L 5.851563 7.351563 L 4.390625 5.238281 L 4.390625 3.699219 Z M 3.910156 3.699219 " transform="matrix(1,0,0,-1,0,11)"/>
<path style="fill-rule:evenodd;fill:rgb(0%,0%,0%);fill-opacity:1;stroke-width:0.035;stroke-linecap:round;stroke-linejoin:round;stroke:rgb(0%,0%,0%);stroke-opacity:1;stroke-miterlimit:10;" d="M 8.429688 6.460938 L 7.980469 6.421875 L 7.949219 6.550781 L 7.871094 6.738281 L 7.808594 6.800781 L 7.71875 6.898438 L 7.5 7 L 7.261719 7 L 7.070313 6.941406 L 6.988281 6.878906 L 6.878906 6.800781 L 6.71875 6.570313 L 6.648438 6.429688 L 6.589844 6.28125 L 6.53125 5.859375 L 6.53125 5.578125 L 6.609375 5.710938 L 6.808594 5.890625 L 6.921875 5.949219 L 7.039063 6.011719 L 7.289063 6.070313 L 7.640625 6.070313 L 8.019531 5.898438 L 8.179688 5.738281 L 8.339844 5.570313 L 8.5 5.148438 L 8.5 4.710938 L 8.421875 4.390625 L 8.351563 4.238281 L 8.269531 4.101563 L 8.070313 3.871094 L 7.941406 3.789063 L 7.808594 3.710938 L 7.519531 3.640625 L 7.070313 3.640625 L 6.609375 3.839844 L 6.441406 4.050781 L 6.261719 4.25 L 6.078125 4.929688 L 6.078125 5.941406 L 6.28125 6.710938 L 6.46875 6.949219 L 6.640625 7.160156 L 7.101563 7.359375 L 7.609375 7.359375 L 7.960938 7.238281 L 8.101563 7.121094 L 8.238281 7 L 8.398438 6.671875 Z M 6.601563 4.878906 L 6.601563 4.769531 L 6.648438 4.539063 L 6.691406 4.441406 L 6.738281 4.328125 L 6.878906 4.171875 L 6.96875 4.121094 L 7.058594 4.058594 L 7.238281 4 L 7.480469 4 L 7.730469 4.121094 L 7.828125 4.230469 L 7.929688 4.351563 L 8.039063 4.660156 L 8.039063 5.050781 L 7.929688 5.351563 L 7.828125 5.460938 L 7.730469 5.558594 L 7.480469 5.671875 L 7.171875 5.671875 L 6.910156 5.558594 L 6.808594 5.460938 L 6.699219 5.351563 L 6.601563 5.058594 Z M 6.601563 4.878906 " transform="matrix(1,0,0,-1,0,11)"/>
</g>
</svg>
