<?xml version="1.0" encoding="UTF-8"?>
<svg xmlns="http://www.w3.org/2000/svg" xmlns:xlink="http://www.w3.org/1999/xlink" width="11pt" height="11pt" viewBox="0 0 11 11" version="1.1">
<g id="surface1">
<path style="fill:none;stroke-width:0.035;stroke-linecap:round;stroke-linejoin:round;stroke:rgb(50.19989%,50.19989%,50.19989%);stroke-opacity:1;stroke-miterlimit:10;" d="M 0.0195313 0.0195313 L 0.0195313 10.980469 L 10.980469 10.980469 L 10.980469 0.0195313 L 0.0195313 0.0195313 " transform="matrix(1,0,0,-1,0,11)"/>
<path style="fill-rule:nonzero;fill:rgb(100%,100%,100%);fill-opacity:1;stroke-width:0.035;stroke-linecap:round;stroke-linejoin:round;stroke:rgb(100%,100%,100%);stroke-opacity:1;stroke-miterlimit:10;" d="M 0.0195313 0.0195313 L 0.0195313 10.980469 L 10.980469 10.980469 L 10.980469 0.0195313 Z M 0.0195313 0.0195313 " transform="matrix(1,0,0,-1,0,11)"/>
<path style="fill:none;stroke-width:0.035;stroke-linecap:round;stroke-linejoin:round;stroke:rgb(50.19989%,50.19989%,50.19989%);stroke-opacity:1;stroke-miterlimit:10;" d="M 0.0195313 0.0195313 L 0.0195313 10.980469 L 10.980469 10.980469 L 10.980469 0.0195313 L 0.0195313 0.0195313 " transform="matrix(1,0,0,-1,0,11)"/>
<path style="fill:none;stroke-width:0.035;stroke-linecap:round;stroke-linejoin:round;stroke:rgb(0%,0%,0%);stroke-opacity:1;stroke-miterlimit:10;" d="M 0.0195313 0.0195313 L 10.980469 0.0195313 " transform="matrix(1,0,0,-1,0,11)"/>
<path style="fill:none;stroke-width:0.035;stroke-linecap:round;stroke-linejoin:round;stroke:rgb(0%,0%,0%);stroke-opacity:1;stroke-miterlimit:10;" d="M 10.980469 0.0195313 L 10.980469 10.980469 " transform="matrix(1,0,0,-1,0,11)"/>
<path style="fill:none;stroke-width:0.035;stroke-linecap:round;stroke-linejoin:round;stroke:rgb(0%,0%,0%);stroke-opacity:1;stroke-miterlimit:10;" d="M 0.0195313 0.0195313 L 0.0195313 10.980469 " transform="matrix(1,0,0,-1,0,11)"/>
<path style="fill:none;stroke-width:0.035;stroke-linecap:round;stroke-linejoin:round;stroke:rgb(0%,0%,0%);stroke-opacity:1;stroke-miterlimit:10;" d="M 0.0195313 10.980469 L 10.980469 10.980469 " transform="matrix(1,0,0,-1,0,11)"/>
<path style="fill:none;stroke-width:0.035;stroke-linecap:round;stroke-linejoin:round;stroke:rgb(0%,0%,0%);stroke-opacity:1;stroke-miterlimit:10;" d="M 0.609375 5.5 L 0.730469 6.589844 L 1.089844 7.621094 L 1.671875 8.550781 L 2.449219 9.328125 L 3.378906 9.910156 L 4.410156 10.269531 L 5.5 10.390625 L 6.589844 10.269531 L 7.621094 9.910156 L 8.550781 9.328125 L 9.328125 8.550781 L 9.910156 7.621094 L 10.269531 6.589844 L 10.390625 5.5 L 10.269531 4.410156 L 9.910156 3.378906 L 9.328125 2.449219 L 8.550781 1.671875 L 7.621094 1.089844 L 6.589844 0.730469 L 5.5 0.609375 L 4.410156 0.730469 L 3.378906 1.089844 L 2.449219 1.671875 L 1.671875 2.449219 L 1.089844 3.378906 L 0.730469 4.410156 L 0.609375 5.5 " transform="matrix(1,0,0,-1,0,11)"/>
<path style="fill-rule:evenodd;fill:rgb(0%,0%,0%);fill-opacity:1;stroke-width:0.035;stroke-linecap:round;stroke-linejoin:round;stroke:rgb(0%,0%,0%);stroke-opacity:1;stroke-miterlimit:10;" d="M 3.910156 3.699219 L 3.910156 5.238281 L 2.5 7.351563 L 3.089844 7.351563 L 3.808594 6.25 L 3.910156 6.089844 L 4.089844 5.789063 L 4.179688 5.628906 L 4.261719 5.769531 L 4.460938 6.101563 L 4.578125 6.28125 L 5.289063 7.351563 L 5.851563 7.351563 L 4.390625 5.238281 L 4.390625 3.699219 Z M 3.910156 3.699219 " transform="matrix(1,0,0,-1,0,11)"/>
<path style="fill-rule:evenodd;fill:rgb(0%,0%,0%);fill-opacity:1;stroke-width:0.035;stroke-linecap:round;stroke-linejoin:round;stroke:rgb(0%,0%,0%);stroke-opacity:1;stroke-miterlimit:10;" d="M 6.789063 5.679688 L 6.648438 5.730469 L 6.441406 5.871094 L 6.378906 5.96875 L 6.308594 6.058594 L 6.238281 6.289063 L 6.238281 6.621094 L 6.378906 6.960938 L 6.53125 7.089844 L 6.671875 7.230469 L 7.050781 7.359375 L 7.53125 7.359375 L 7.910156 7.230469 L 8.058594 7.089844 L 8.199219 6.949219 L 8.351563 6.609375 L 8.351563 6.28125 L 8.28125 6.058594 L 8.21875 5.96875 L 8.148438 5.871094 L 7.949219 5.730469 L 7.808594 5.679688 L 7.980469 5.621094 L 8.238281 5.449219 L 8.320313 5.320313 L 8.410156 5.199219 L 8.5 4.910156 L 8.5 4.511719 L 8.328125 4.109375 L 8.171875 3.949219 L 8 3.789063 L 7.570313 3.640625 L 7.03125 3.640625 L 6.589844 3.800781 L 6.429688 3.960938 L 6.261719 4.121094 L 6.101563 4.511719 L 6.101563 4.929688 L 6.191406 5.230469 L 6.28125 5.351563 L 6.371094 5.46875 L 6.621094 5.628906 Z M 6.558594 4.75 L 6.558594 4.660156 L 6.601563 4.46875 L 6.648438 4.378906 L 6.691406 4.289063 L 6.828125 4.148438 L 6.921875 4.101563 L 7.011719 4.050781 L 7.199219 4 L 7.460938 4 L 7.730469 4.109375 L 7.828125 4.210938 L 7.941406 4.308594 L 8.039063 4.578125 L 8.039063 4.898438 L 7.929688 5.171875 L 7.820313 5.269531 L 7.71875 5.378906 L 7.449219 5.480469 L 7.128906 5.480469 L 6.871094 5.378906 L 6.761719 5.269531 L 6.660156 5.171875 L 6.558594 4.910156 Z M 6.699219 6.441406 L 6.699219 6.308594 L 6.78125 6.101563 L 6.871094 6.011719 L 6.949219 5.929688 L 7.171875 5.851563 L 7.429688 5.851563 L 7.640625 5.929688 L 7.71875 6.011719 L 7.808594 6.089844 L 7.890625 6.289063 L 7.890625 6.539063 L 7.800781 6.738281 L 7.71875 6.828125 L 7.640625 6.910156 L 7.421875 7 L 7.171875 7 L 6.949219 6.910156 L 6.871094 6.828125 L 6.789063 6.75 L 6.699219 6.550781 Z M 6.699219 6.441406 " transform="matrix(1,0,0,-1,0,11)"/>
</g>
</svg>
